# xmcd CD database file
#
# Track frame offsets:
#	150
#	16880
#	33655
#	47174
#	62068
#	80150
#	94927
#	109226
#	126436
#	140509
#	151871
#	169465
#	186050
#	200355
#	212348
#	226073
#	239686
#	251191
#	267570
#	288773
#
# Disc length: 3979 seconds
#
# Revision: 0
# Processed by: cddbd v1.5.1PL2 Copyright (c) Steve Scherf et al.
# Submitted via: CDex 1.51
#
DISCID=290f8914
DTITLE=Antonio Carlos e Jocafi - Coletanea Ant Carlos e Jocafi
DYEAR=2006
DGENRE=MPB
TTITLE0=Voce abusou 01
TTITLE1=Desacato
TTITLE2=Dona Flor e seus dois maridos
TTITLE3=Encabulada
TTITLE4=Fraqueza
TTITLE5=Maldita hora
TTITLE6=Mas que doidice
TTITLE7=Mercador de vinganca
TTITLE8=Minhs razoes
TTITLE9=Mudei de ideia
TTITLE10=Otalia da Bahia
TTITLE11=Presepada
TTITLE12=Princesa da noite
TTITLE13=Simbarer
TTITLE14=Teimosa 1
TTITLE15=Teimosa 2
TTITLE16=Toroh de lagrimas
TTITLE17=Voce abusou
TTITLE18=Voce abusou-Pagodinho Martinho Aragao
TTITLE19=Wave
EXTD=YEAR: 2006
EXTT0=
EXTT1=
EXTT2=
EXTT3=
EXTT4=
EXTT5=
EXTT6=
EXTT7=
EXTT8=
EXTT9=
EXTT10=
EXTT11=
EXTT12=
EXTT13=
EXTT14=
EXTT15=
EXTT16=
EXTT17=
EXTT18=
EXTT19=
PLAYORDER=
